<svg preserveAspectRatio="none" width="100%" height="100%" overflow="visible" style="display: block;" viewBox="0 0 26 26" fill="none" xmlns="http://www.w3.org/2000/svg">
<g id="whatsapp-svgrepo-com 1">
<path id="Vector" d="M6.51517 8.67331C6.63896 7.69427 7.91133 6.36365 8.92112 6.5113L8.91951 6.50969C9.90222 6.69643 10.6801 8.38783 11.1188 9.14837C11.4296 9.70019 11.2278 10.2593 10.9379 10.4952C10.5468 10.8104 9.93524 11.2453 10.0635 11.682C10.2917 12.4583 13 15.1667 14.3321 15.9366C14.8362 16.228 15.2019 15.4594 15.5141 15.0656C15.7409 14.7627 16.3005 14.5817 16.851 14.8807C17.6733 15.3595 18.4479 15.916 19.1642 16.5425C19.5219 16.8415 19.6058 17.2834 19.358 17.7504C18.9214 18.573 17.6587 19.6577 16.742 19.4373C15.1411 19.0524 8.66667 16.5425 6.58702 9.27118C6.47007 8.92719 6.49951 8.79714 6.51517 8.67331Z" fill="var(--fill-0, white)"/>
<path id="Vector_2" fill-rule="evenodd" clip-rule="evenodd" d="M13 24.9167C11.6744 24.9167 10.941 24.7744 9.75 24.375L7.46897 25.5155C6.02834 26.2358 4.33333 25.1883 4.33333 23.5776V21.125C2.00043 18.9497 1.08333 16.4414 1.08333 13C1.08333 6.41861 6.41861 1.08333 13 1.08333C19.5814 1.08333 24.9167 6.41861 24.9167 13C24.9167 19.5814 19.5814 24.9167 13 24.9167ZM6.5 20.1828L5.81095 19.5403C3.99844 17.8503 3.25 15.9609 3.25 13C3.25 7.61523 7.61523 3.25 13 3.25C18.3848 3.25 22.75 7.61523 22.75 13C22.75 18.3848 18.3848 22.75 13 22.75C11.9322 22.75 11.4313 22.6536 10.4389 22.3208L9.58584 22.0347L6.5 23.5776V20.1828Z" fill="var(--fill-0, white)"/>
</g>
</svg>
